<svg xmlns="http://www.w3.org/2000/svg" viewBox="0 0 71.63 99.33"><defs><style>.cls-1,.cls-2{fill:#2424ef;}.cls-1,.cls-2,.cls-3,.cls-4,.cls-5{stroke:#000;stroke-width:3px;}.cls-1,.cls-4,.cls-5{stroke-miterlimit:10;}.cls-2,.cls-3{stroke-linejoin:round;}.cls-3,.cls-5{fill:#fff;}.cls-4{fill:none;stroke-linecap:round;}</style></defs><g id="Layer_6" data-name="Layer 6"><rect class="cls-1" x="61.26" y="65.93" width="8.84" height="3.39" rx="1.69" transform="translate(159.14 79.86) rotate(141.62)"/><rect class="cls-1" x="0.29" y="65.93" width="8.84" height="3.39" rx="1.69" transform="translate(43 11.69) rotate(38.38)"/><path class="cls-2" d="M7.59,15.33V84A13.86,13.86,0,0,0,21.41,97.83H49A13.86,13.86,0,0,0,62.79,84V15.33A13.87,13.87,0,0,0,49,1.5H21.41A13.88,13.88,0,0,0,7.59,15.33Zm49.82-.89V74.22H12.81V14.28ZM19.66,57.24H50.71V21.14h-31Z"/><rect class="cls-2" x="19.66" y="21.14" width="31.05" height="36.1"/><polygon class="cls-3" points="12.81 14.28 57.41 14.44 50.71 21.14 19.66 21.14 12.81 14.28"/><polygon class="cls-3" points="19.66 57.24 50.71 57.24 57.41 74.22 12.81 74.22 19.66 57.24"/><polygon class="cls-3" points="57.41 35.33 57.41 74.22 50.71 57.24 50.71 39.19 57.41 35.33"/><polygon class="cls-3" points="57.41 14.44 57.41 35.33 50.71 39.19 50.71 21.14 57.41 14.44"/><polygon class="cls-3" points="12.81 35.33 19.66 39.19 19.66 57.24 12.81 74.22 12.81 35.33"/><polygon class="cls-3" points="12.81 14.28 19.66 21.14 19.66 39.19 12.81 35.33 12.81 14.28"/><path class="cls-4" d="M57.69,9.6a8.83,8.83,0,0,0-5.1-4.07"/><path class="cls-4" d="M12.81,9.6a8.83,8.83,0,0,1,5.1-4.07"/><ellipse class="cls-5" cx="50.71" cy="91.59" rx="4.36" ry="2.7" transform="translate(-39 37.63) rotate(-30)"/><ellipse class="cls-5" cx="19.67" cy="91.59" rx="2.7" ry="4.36" transform="translate(-69.49 62.83) rotate(-60)"/><line class="cls-4" x1="26.63" y1="93.29" x2="43.75" y2="93.29"/></g></svg>