<svg xmlns="http://www.w3.org/2000/svg" viewBox="0 0 71.63 99.33"><defs><style>.cls-1,.cls-2{fill:#1c831c;}.cls-1,.cls-2,.cls-3,.cls-4,.cls-5{stroke:#000;stroke-width:3px;}.cls-1,.cls-4,.cls-5{stroke-miterlimit:10;}.cls-2,.cls-3{stroke-linejoin:round;}.cls-3,.cls-5{fill:#fff;}.cls-4{fill:none;stroke-linecap:round;}</style></defs><g id="Layer_6" data-name="Layer 6"><rect class="cls-1" x="61.88" y="65.93" width="8.84" height="3.39" rx="1.69" transform="translate(160.25 79.47) rotate(141.62)"/><rect class="cls-1" x="0.91" y="65.93" width="8.84" height="3.39" rx="1.69" transform="translate(43.13 11.3) rotate(38.38)"/><path class="cls-2" d="M8.21,15.33V84A13.86,13.86,0,0,0,22,97.83H49.58A13.86,13.86,0,0,0,63.41,84V15.33A13.87,13.87,0,0,0,49.58,1.5H22A13.88,13.88,0,0,0,8.21,15.33ZM58,14.44V74.22H13.43V14.28ZM20.28,57.24H51.33V21.14h-31Z"/><rect class="cls-2" x="20.28" y="21.14" width="31.05" height="36.1"/><polygon class="cls-3" points="13.43 14.28 58.03 14.44 51.33 21.14 20.28 21.14 13.43 14.28"/><polygon class="cls-3" points="20.28 57.24 51.33 57.24 58.03 74.22 13.43 74.22 20.28 57.24"/><polygon class="cls-3" points="58.03 35.33 58.03 74.22 51.33 57.24 51.33 39.19 58.03 35.33"/><polygon class="cls-3" points="58.03 14.44 58.03 35.33 51.33 39.19 51.33 21.14 58.03 14.44"/><polygon class="cls-3" points="13.43 35.33 20.28 39.19 20.28 57.24 13.43 74.22 13.43 35.33"/><polygon class="cls-3" points="13.43 14.28 20.28 21.14 20.28 39.19 13.43 35.33 13.43 14.28"/><path class="cls-4" d="M58.31,9.6a8.83,8.83,0,0,0-5.1-4.07"/><path class="cls-4" d="M13.43,9.6a8.83,8.83,0,0,1,5.1-4.07"/><ellipse class="cls-5" cx="51.34" cy="91.59" rx="4.36" ry="2.7" transform="translate(-38.92 37.94) rotate(-30)"/><ellipse class="cls-5" cx="20.29" cy="91.59" rx="2.7" ry="4.36" transform="matrix(0.5, -0.87, 0.87, 0.5, -69.18, 63.36)"/><line class="cls-4" x1="27.25" y1="93.29" x2="44.37" y2="93.29"/></g></svg>