<svg xmlns="http://www.w3.org/2000/svg" viewBox="0 0 1400 942.23"><defs><style>.cls-1{fill:#badd8c;}.cls-2{fill:#ccc;stroke-width:5px;}.cls-10,.cls-2,.cls-5,.cls-8,.cls-9{stroke:#000;stroke-miterlimit:10;}.cls-3,.cls-4,.cls-5,.cls-6,.cls-7,.cls-8{fill:none;}.cls-3,.cls-6{stroke:#fff;}.cls-3,.cls-4,.cls-6,.cls-7{stroke-linejoin:bevel;}.cls-3,.cls-4{stroke-width:18.77px;}.cls-4,.cls-7{stroke:red;}.cls-4{stroke-dasharray:5.36;}.cls-10,.cls-5,.cls-9{stroke-width:2px;}.cls-6,.cls-7{stroke-width:17.19px;}.cls-7{stroke-dasharray:4.91;}.cls-8{stroke-width:1.83px;}.cls-9{fill:#fff;}</style></defs><g id="Layer_6" data-name="Layer 6"><rect class="cls-1" width="1400" height="942.23"/><path class="cls-2" d="M285.34,641.89V263.55c0-97,78.94-176,176-176s176,78.93,176,176V441.46a68.24,68.24,0,0,0,136.47,0V258.06c0-94,76.47-170.46,170.47-170.46s170.47,76.47,170.47,170.46V641.89A212.74,212.74,0,0,1,901.92,854.63H498.08A212.74,212.74,0,0,1,285.34,641.89ZM529.53,263.55a68.23,68.23,0,0,0-136.46,0V641.89a105.13,105.13,0,0,0,105,105H901.92a105.13,105.13,0,0,0,105-105V258.06a62.75,62.75,0,0,0-125.49,0v183.4c0,97-78.93,176-176,176s-176-78.94-176-176Z"/><path class="cls-3" d="M418.27,214.34a60.51,60.51,0,0,0-17.95,43"/><path class="cls-3" d="M461.3,196.38a60.52,60.52,0,0,0-43,18"/><path class="cls-3" d="M504.33,214.34a60.52,60.52,0,0,0-43-18"/><path class="cls-3" d="M522.28,257.37a60.51,60.51,0,0,0-17.95-43"/><path class="cls-4" d="M522.28,257.37a61,61,0,0,0-122,0"/><path class="cls-5" d="M531.67,257.37H512.9a51.6,51.6,0,0,0-103.2,0H390.93a70.37,70.37,0,0,1,140.74,0Z"/><path class="cls-6" d="M905.08,215a55.41,55.41,0,0,0-16.45,39.42"/><path class="cls-6" d="M944.5,198.55A55.44,55.44,0,0,0,905.08,215"/><path class="cls-6" d="M983.92,215a55.44,55.44,0,0,0-39.42-16.45"/><path class="cls-6" d="M1000.37,254.42A55.45,55.45,0,0,0,983.92,215"/><path class="cls-7" d="M1000.37,254.42a55.87,55.87,0,0,0-111.74,0"/><path class="cls-8" d="M1009,254.42H991.77a47.27,47.27,0,0,0-94.54,0H880a64.47,64.47,0,0,1,128.93,0Z"/><path class="cls-3" d="M748.24,484.48a60.52,60.52,0,0,0,18-43"/><path class="cls-3" d="M705.21,502.44a60.52,60.52,0,0,0,43-18"/><path class="cls-3" d="M662.19,484.48a60.52,60.52,0,0,0,43,18"/><path class="cls-3" d="M644.23,441.45a60.52,60.52,0,0,0,18,43"/><path class="cls-4" d="M644.23,441.45a61,61,0,0,0,122,0"/><path class="cls-5" d="M634.85,441.45h18.77a51.6,51.6,0,0,0,103.19,0h18.77a70.37,70.37,0,0,1-140.73,0Z"/><path class="cls-3" d="M399.07,606.65v31.24c.05,8.3,1.21,41.87,27.31,70.58,30.33,33.36,70.91,34.38,77.7,34.44h36.1"/><path class="cls-4" d="M399.07,606.65v31.24c.05,8.3,1.21,41.87,27.31,70.58,30.33,33.36,70.91,34.38,77.7,34.44h36.1"/><path class="cls-5" d="M539.53,752.29h-36.1c-12-.1-53.36-3.11-84.64-37.51C392.19,685.52,389.12,651.31,389,638v-31.3H407.8v31.24c.07,11.14,2.64,39.81,24.88,64.27,26.15,28.76,60.83,31.28,70.83,31.36h36Z"/><path class="cls-3" d="M1001.89,605.65v31.24c0,8.3-1.22,41.87-27.32,70.58-30.33,33.36-70.91,34.38-77.7,34.44h-36.1"/><path class="cls-4" d="M1001.89,605.65v31.24c0,8.3-1.22,41.87-27.32,70.58-30.33,33.36-70.91,34.38-77.7,34.44h-36.1"/><path class="cls-5" d="M861.42,751.29h36.1c12-.1,53.37-3.11,84.64-37.51,26.61-29.26,29.67-63.47,29.76-76.83v-31.3H993.15v31.24c-.07,11.14-2.64,39.81-24.87,64.27-26.16,28.76-60.84,31.28-70.84,31.36h-36Z"/><rect class="cls-9" x="727.25" y="746.93" width="17.86" height="18.91" transform="translate(1492.57 20.2) rotate(90)"/><rect class="cls-10" x="727.25" y="764.8" width="17.86" height="18.91" transform="translate(1510.43 38.07) rotate(90)"/><rect class="cls-9" x="727.25" y="782.66" width="17.86" height="18.91" transform="translate(1528.29 55.93) rotate(90)"/><rect class="cls-10" x="708.34" y="746.93" width="17.86" height="18.91" transform="translate(1473.66 39.11) rotate(90)"/><rect class="cls-9" x="708.34" y="764.8" width="17.86" height="18.91" transform="translate(1491.52 56.97) rotate(90)"/><rect class="cls-10" x="708.34" y="782.66" width="17.86" height="18.91" transform="translate(1509.39 74.84) rotate(90)"/><rect class="cls-10" x="727.25" y="800.52" width="17.86" height="18.91" transform="translate(1546.15 73.79) rotate(90)"/><rect class="cls-9" x="708.34" y="800.52" width="17.86" height="18.91" transform="translate(1527.25 92.7) rotate(90)"/><rect class="cls-9" x="727.25" y="818.38" width="17.86" height="18.91" transform="translate(1564.02 91.65) rotate(90)"/><rect class="cls-10" x="708.34" y="818.38" width="17.86" height="18.91" transform="translate(1545.11 110.56) rotate(90)"/><rect class="cls-10" x="727.25" y="836.25" width="17.86" height="18.91" transform="translate(1581.88 109.52) rotate(90)"/><rect class="cls-9" x="708.34" y="836.25" width="17.86" height="18.91" transform="translate(1562.97 128.42) rotate(90)"/></g></svg>