<svg xmlns="http://www.w3.org/2000/svg" viewBox="0 0 1400 1400"><defs><style>.cls-1{fill:#badd8c;}.cls-2{fill:#999;}.cls-10,.cls-3,.cls-5,.cls-6{fill:none;}.cls-10,.cls-11,.cls-12,.cls-13,.cls-14,.cls-15,.cls-3,.cls-5,.cls-7,.cls-8,.cls-9{stroke:#000;}.cls-13,.cls-15,.cls-3,.cls-5,.cls-8,.cls-9{stroke-linejoin:round;}.cls-3{stroke-width:10px;}.cls-4{fill:#ccc;}.cls-5{stroke-width:5px;}.cls-6{stroke:#fff;stroke-width:20px;stroke-dasharray:50;}.cls-10,.cls-11,.cls-12,.cls-14,.cls-6,.cls-7{stroke-miterlimit:10;}.cls-7,.cls-8{fill:#1c831c;}.cls-10,.cls-11,.cls-12,.cls-13,.cls-14,.cls-15,.cls-7,.cls-8,.cls-9{stroke-width:3px;}.cls-11,.cls-9{fill:#fff;}.cls-10{stroke-linecap:round;}.cls-12,.cls-13{fill:#2424ef;}.cls-14,.cls-15{fill:red;}</style></defs><g id="Layer_6" data-name="Layer 6"><rect class="cls-1" width="1400" height="1400"/><polyline class="cls-2" points="594.2 540.67 594.2 599.67 535.2 599.67 -1.4 599.67 -1.4 540.67 535.2 540.67 535.2 0 594.2 0 594.2 540.67 594.2 599.67 535.2 599.67"/><polyline class="cls-2" points="802.99 540.67 802.99 599.67 861.99 599.67 1398.6 599.67 1398.6 540.67 861.99 540.67 861.99 0 802.99 0 802.99 540.67 802.99 599.67 861.99 599.67"/><polyline class="cls-2" points="594.2 859.32 594.2 800.32 535.2 800.32 -1.4 800.32 -1.4 859.32 535.2 859.32 535.2 1400 594.2 1400 594.2 859.32 594.2 800.32 535.2 800.32"/><polyline class="cls-2" points="861.99 800.32 802.99 800.32 802.99 859.32 802.99 1400 861.99 1400 861.99 859.32 1398.6 859.32 1398.6 800.32 861.99 800.32 802.99 800.32 802.99 859.32"/><polyline class="cls-3" points="594.2 800.32 594.2 859.32 594.2 1400"/><polyline class="cls-3" points="594.2 0 594.2 540.67 594.2 599.67"/><polygon class="cls-4" points="1398.6 599.67 802.99 599.67 802.99 0 594.2 0 594.2 599.67 -1.4 599.67 -1.4 800.32 594.2 800.32 594.2 1400 802.99 1400 802.99 800.32 1398.6 800.32 1398.6 599.67"/><polyline class="cls-3" points="802.99 800.32 802.99 859.32 802.99 1400"/><polyline class="cls-3" points="802.99 0 802.99 540.67 802.99 599.67"/><polyline class="cls-3" points="594.2 0 594.2 540.67 594.2 599.67 535.2 599.67"/><polyline class="cls-5" points="-1.4 540.67 535.2 540.67 535.2 0"/><polyline class="cls-3" points="594.2 540.67 594.2 599.67 535.2 599.67 -1.4 599.67"/><polyline class="cls-3" points="-1.4 599.67 535.2 599.67 594.2 599.67"/><polyline class="cls-3" points="802.99 0 802.99 540.67 802.99 599.67 861.99 599.67"/><polyline class="cls-5" points="1398.6 540.67 861.99 540.67 861.99 0"/><polyline class="cls-3" points="802.99 540.67 802.99 599.67 861.99 599.67 1398.6 599.67"/><polyline class="cls-3" points="802.99 599.67 861.99 599.67 1398.6 599.67"/><polyline class="cls-3" points="594.2 1400 594.2 859.32 594.2 800.32 535.2 800.32"/><polyline class="cls-5" points="-1.4 859.32 535.2 859.32 535.2 1400"/><polyline class="cls-3" points="594.2 859.32 594.2 800.32 535.2 800.32 -1.4 800.32"/><polyline class="cls-3" points="-1.4 800.32 535.2 800.32 594.2 800.32"/><polyline class="cls-3" points="1398.6 800.32 861.99 800.32 802.99 800.32 802.99 859.32"/><polyline class="cls-5" points="861.99 1400 861.99 859.32 1398.6 859.32"/><polyline class="cls-3" points="861.99 800.32 802.99 800.32 802.99 859.32 802.99 1400"/><polyline class="cls-3" points="802.99 800.32 861.99 800.32 1398.6 800.32"/><line class="cls-6" x1="698.59" y1="800.32" x2="698.59" y2="1400"/><line class="cls-6" x1="698.59" y1="599.68" x2="698.59"/><line class="cls-6" x1="594.2" y1="700" x2="-1.41" y2="700"/><line class="cls-6" x1="802.99" y1="700" x2="1398.59" y2="700"/><rect class="cls-7" x="669.54" y="193.02" width="8.84" height="3.39" rx="1.69" transform="translate(1323.19 -71.05) rotate(141.62)"/><rect class="cls-7" x="608.57" y="193.02" width="8.84" height="3.39" rx="1.69" transform="translate(253.32 -338.49) rotate(38.38)"/><path class="cls-8" d="M615.87,142.43V211.1a13.86,13.86,0,0,0,13.83,13.82h27.54a13.87,13.87,0,0,0,13.84-13.82V142.43a13.88,13.88,0,0,0-13.84-13.84H629.7A13.88,13.88,0,0,0,615.87,142.43Zm49.82-.9v59.78h-44.6V141.37Zm-37.75,42.81h31V148.23h-31Z"/><rect class="cls-8" x="627.94" y="148.23" width="31.05" height="36.1"/><polygon class="cls-9" points="621.09 141.37 665.69 141.53 658.99 148.23 627.94 148.23 621.09 141.37"/><polygon class="cls-9" points="627.94 184.34 658.99 184.34 665.69 201.31 621.09 201.31 627.94 184.34"/><polygon class="cls-9" points="665.69 162.42 665.69 201.31 658.99 184.34 658.99 166.28 665.69 162.42"/><polygon class="cls-9" points="665.69 141.53 665.69 162.42 658.99 166.28 658.99 148.23 665.69 141.53"/><polygon class="cls-9" points="621.09 162.42 627.94 166.28 627.94 184.34 621.09 201.31 621.09 162.42"/><polygon class="cls-9" points="621.09 141.37 627.94 148.23 627.94 166.28 621.09 162.42 621.09 141.37"/><path class="cls-10" d="M666,136.69a8.83,8.83,0,0,0-5.1-4.07"/><path class="cls-10" d="M621.09,136.69a8.83,8.83,0,0,1,5.1-4.07"/><ellipse class="cls-11" cx="659" cy="218.68" rx="4.36" ry="2.7" transform="translate(-21.05 358.8) rotate(-30)"/><ellipse class="cls-11" cx="627.95" cy="218.68" rx="2.7" ry="4.36" transform="matrix(0.5, -0.87, 0.87, 0.5, 124.59, 653.16)"/><line class="cls-10" x1="634.91" y1="220.38" x2="652.03" y2="220.38"/><rect class="cls-12" x="1195.04" y="676.15" width="8.84" height="3.39" rx="1.69" transform="translate(1412.72 2038.98) rotate(-128.38)"/><rect class="cls-12" x="1195.04" y="615.18" width="8.84" height="3.39" rx="1.69" transform="translate(2427.72 59.52) rotate(128.38)"/><path class="cls-13" d="M1251.75,619.76h-68.67a13.86,13.86,0,0,0-13.83,13.82v27.55A13.87,13.87,0,0,0,1183.08,675h68.67a13.88,13.88,0,0,0,13.84-13.83V633.58A13.87,13.87,0,0,0,1251.75,619.76Zm.89,49.81h-59.77V625h59.93Zm-42.8-37.74v31H1246v-31Z"/><rect class="cls-13" x="1209.84" y="631.83" width="36.1" height="31.05"/><polygon class="cls-9" points="1252.8 624.97 1252.64 669.57 1245.95 662.88 1245.95 631.83 1252.8 624.97"/><polygon class="cls-9" points="1209.84 631.83 1209.84 662.88 1192.87 669.57 1192.87 624.97 1209.84 631.83"/><polygon class="cls-9" points="1231.75 669.57 1192.87 669.57 1209.84 662.88 1227.9 662.88 1231.75 669.57"/><polygon class="cls-9" points="1252.64 669.57 1231.75 669.57 1227.9 662.88 1245.95 662.88 1252.64 669.57"/><polygon class="cls-9" points="1231.75 624.97 1227.9 631.83 1209.84 631.83 1192.87 624.97 1231.75 624.97"/><polygon class="cls-9" points="1252.8 624.97 1245.95 631.83 1227.9 631.83 1231.75 624.97 1252.8 624.97"/><path class="cls-10" d="M1257.49,669.85a8.83,8.83,0,0,0,4.07-5.1"/><path class="cls-10" d="M1257.49,625a8.83,8.83,0,0,1,4.07,5.11"/><ellipse class="cls-11" cx="1175.49" cy="662.88" rx="2.7" ry="4.36" transform="translate(-173.95 676.56) rotate(-30)"/><ellipse class="cls-11" cx="1175.49" cy="631.83" rx="4.36" ry="2.7" transform="matrix(0.5, -0.87, 0.87, 0.5, 40.57, 1333.92)"/><line class="cls-10" x1="1173.79" y1="638.8" x2="1173.79" y2="655.92"/><rect class="cls-14" x="717.89" y="1217.48" width="8.84" height="3.39" rx="1.69" transform="translate(-600.83 711.82) rotate(-38.38)"/><rect class="cls-14" x="778.85" y="1217.48" width="8.84" height="3.39" rx="1.69" transform="translate(640.44 2661.22) rotate(-141.62)"/><path class="cls-15" d="M780.39,1271.46v-68.68A13.86,13.86,0,0,0,766.57,1189H739a13.87,13.87,0,0,0-13.83,13.82v68.68A13.87,13.87,0,0,0,739,1285.29h27.55A13.86,13.86,0,0,0,780.39,1271.46Zm-49.82.89v-59.78h44.61v59.94Zm37.75-42.8H737.27v36.1h31.05Z"/><rect class="cls-15" x="737.27" y="1229.55" width="31.05" height="36.1"/><polygon class="cls-9" points="775.18 1272.51 730.58 1272.35 737.27 1265.65 768.32 1265.65 775.18 1272.51"/><polygon class="cls-9" points="768.32 1229.55 737.27 1229.55 730.58 1212.57 775.18 1212.57 768.32 1229.55"/><polygon class="cls-9" points="730.58 1251.46 730.58 1212.57 737.27 1229.55 737.27 1247.61 730.58 1251.46"/><polygon class="cls-9" points="730.58 1272.35 730.58 1251.46 737.27 1247.61 737.27 1265.65 730.58 1272.35"/><polygon class="cls-9" points="775.18 1251.46 768.32 1247.61 768.32 1229.55 775.18 1212.57 775.18 1251.46"/><polygon class="cls-9" points="775.18 1272.51 768.32 1265.65 768.32 1247.61 775.18 1251.46 775.18 1272.51"/><path class="cls-10" d="M730.29,1277.2a8.92,8.92,0,0,0,5.11,4.07"/><path class="cls-10" d="M775.18,1277.2a8.92,8.92,0,0,1-5.11,4.07"/><ellipse class="cls-11" cx="737.27" cy="1195.2" rx="4.36" ry="2.7" transform="translate(-498.83 528.76) rotate(-30)"/><ellipse class="cls-11" cx="768.32" cy="1195.2" rx="2.7" ry="4.36" transform="translate(-650.92 1262.98) rotate(-60)"/><line class="cls-10" x1="761.35" y1="1193.5" x2="744.23" y2="1193.5"/></g></svg>