<svg xmlns="http://www.w3.org/2000/svg" viewBox="0 0 1400 1400"><defs><style>.cls-1{fill:#badd8c;}.cls-2{fill:#999;}.cls-3,.cls-5,.cls-6{fill:none;}.cls-3,.cls-5{stroke:#000;stroke-linejoin:round;}.cls-3{stroke-width:10px;}.cls-4{fill:#ccc;}.cls-5{stroke-width:5px;}.cls-6{stroke:#fff;stroke-miterlimit:10;stroke-width:20px;stroke-dasharray:50;}</style></defs><g id="Layer_6" data-name="Layer 6"><rect class="cls-1" width="1400" height="1400"/><polyline class="cls-2" points="594.2 540.67 594.2 599.67 535.2 599.67 -1.4 599.67 -1.4 540.67 535.2 540.67 535.2 0 594.2 0 594.2 540.67 594.2 599.67 535.2 599.67"/><polyline class="cls-2" points="802.99 540.67 802.99 599.67 861.99 599.67 1398.6 599.67 1398.6 540.67 861.99 540.67 861.99 0 802.99 0 802.99 540.67 802.99 599.67 861.99 599.67"/><polyline class="cls-2" points="594.2 859.32 594.2 800.32 535.2 800.32 -1.4 800.32 -1.4 859.32 535.2 859.32 535.2 1400 594.2 1400 594.2 859.32 594.2 800.32 535.2 800.32"/><polyline class="cls-2" points="861.99 800.32 802.99 800.32 802.99 859.32 802.99 1400 861.99 1400 861.99 859.32 1398.6 859.32 1398.6 800.32 861.99 800.32 802.99 800.32 802.99 859.32"/><polyline class="cls-3" points="594.2 800.32 594.2 859.32 594.2 1400"/><polyline class="cls-3" points="594.2 0 594.2 540.67 594.2 599.67"/><polygon class="cls-4" points="1398.6 599.67 802.99 599.67 802.99 0 594.2 0 594.2 599.67 -1.4 599.67 -1.4 800.32 594.2 800.32 594.2 1400 802.99 1400 802.99 800.32 1398.6 800.32 1398.6 599.67"/><polyline class="cls-3" points="802.99 800.32 802.99 859.32 802.99 1400"/><polyline class="cls-3" points="802.99 0 802.99 540.67 802.99 599.67"/><polyline class="cls-3" points="594.2 0 594.2 540.67 594.2 599.67 535.2 599.67"/><polyline class="cls-5" points="-1.4 540.67 535.2 540.67 535.2 0"/><polyline class="cls-3" points="594.2 540.67 594.2 599.67 535.2 599.67 -1.4 599.67"/><polyline class="cls-3" points="-1.4 599.67 535.2 599.67 594.2 599.67"/><polyline class="cls-3" points="802.99 0 802.99 540.67 802.99 599.67 861.99 599.67"/><polyline class="cls-5" points="1398.6 540.67 861.99 540.67 861.99 0"/><polyline class="cls-3" points="802.99 540.67 802.99 599.67 861.99 599.67 1398.6 599.67"/><polyline class="cls-3" points="802.99 599.67 861.99 599.67 1398.6 599.67"/><polyline class="cls-3" points="594.2 1400 594.2 859.32 594.2 800.32 535.2 800.32"/><polyline class="cls-5" points="-1.4 859.32 535.2 859.32 535.2 1400"/><polyline class="cls-3" points="594.2 859.32 594.2 800.32 535.2 800.32 -1.4 800.32"/><polyline class="cls-3" points="-1.4 800.32 535.2 800.32 594.2 800.32"/><polyline class="cls-3" points="1398.6 800.32 861.99 800.32 802.99 800.32 802.99 859.32"/><polyline class="cls-5" points="861.99 1400 861.99 859.32 1398.6 859.32"/><polyline class="cls-3" points="861.99 800.32 802.99 800.32 802.99 859.32 802.99 1400"/><polyline class="cls-3" points="802.99 800.32 861.99 800.32 1398.6 800.32"/><line class="cls-6" x1="698.59" y1="800.32" x2="698.59" y2="1400"/><line class="cls-6" x1="698.59" y1="599.68" x2="698.59"/><line class="cls-6" x1="594.2" y1="700" x2="-1.41" y2="700"/><line class="cls-6" x1="802.99" y1="700" x2="1398.59" y2="700"/></g></svg>